# xmcd CD database file
#
# Track frame offsets:
#	150
#	12181
#	40665
#	58104
#	70857
#	93978
#	109716
#	126375
#	141027
#	161790
#	181242
#	198093
#	209796
#	226617
#	242233
#	275625
#
# Disc length: 3791 seconds
#
# Revision: 0
# Processed by: cddbd v1.5.2PL0 Copyright (c) Steve Scherf et al.
# Submitted via: CDex 1.70beta2
#
DISCID=e30ecd10
DTITLE=Aki Takase and Han Bennink - Two for Two
DYEAR=2011
DGENRE=Jazz
TTITLE0=01Two for Two
TTITLE1=02 My Tokyo
TTITLE2=03 Locomotive
TTITLE3=04 Zankapfel
TTITLE4=05 Knut
TTITLE5=06 Baumkuchen
TTITLE6=07 Monochrome
TTITLE7=08 Raise Four
TTITLE8=09 Do You Know What It Means toMiss New Orleans
TTITLE9=10 A chotto matte
TTITLE10=11 Hat and Beard
TTITLE11=12 Ohana Han
TTITLE12=13 Rolled Up
TTITLE13=14 Hell und dunkel
TTITLE14=15 Hommage to Thelonious Monk
TTITLE15=16 Two for Two
EXTD=YEAR: 2011
EXTT0=
EXTT1=
EXTT2=
EXTT3=
EXTT4=
EXTT5=
EXTT6=
EXTT7=
EXTT8=
EXTT9=
EXTT10=
EXTT11=
EXTT12=
EXTT13=
EXTT14=
EXTT15=
PLAYORDER=
